<svg xmlns="http://www.w3.org/2000/svg" viewBox="0 0 410 142" role="img" aria-labelledby="ratiomera-stacked-title ratiomera-stacked-desc" focusable="false">
  <title id="ratiomera-stacked-title">Ratiomera stacked logo</title>
  <desc id="ratiomera-stacked-desc">The geometric Ratiomera R centered above the Ratiomera wordmark in navy.</desc>
  <g fill="none" stroke="#183B56" stroke-linecap="round" stroke-linejoin="round">
    <g transform="translate(171 1)">
      <path d="M16 55V9h17c11 0 18 6.8 18 17s-7 17-18 17H16" stroke-width="8"/>
      <path d="M33 43 52 55" stroke-width="8"/>
      <path d="M28 26h13" stroke-width="4"/>
    </g>
    <g transform="translate(-31 66)" stroke-width="4.5">
      <path d="M76 52V20h14c9 0 13 3.5 13 10s-4 10-13 10H76m15 0 14 12"/><path d="m113 52 13-32 13 32m-21-11h16"/><path d="M146 20h28m-14 0v32"/><path d="M184 20h14m-7 0v32m-7 0h14"/><path d="M224 20c-10 0-17 6-17 16s7 16 17 16 17-6 17-16-7-16-17-16Z"/><path d="M253 52V20l15 20 15-20v32"/><path d="M319 20h-23v32h23m-23-16h20"/><path d="M332 52V20h14c9 0 13 3.5 13 10s-4 10-13 10h-14m15 0 14 12"/><path d="m369 52 13-32 13 32m-21-11h16"/>
    </g>
  </g>
</svg>
